<?xml version="1.0" encoding="UTF-8"?>
<svg id="_图层_1" data-name="图层 1" xmlns="http://www.w3.org/2000/svg" viewBox="0 0 31.46 15.09">
  <defs>
    <style>
      .cls-1 {
        fill: #00a0e9;
        stroke: #00a0e9;
        stroke-miterlimit: 10;
        stroke-width: 1.18px;
      }

      .cls-2 {
        fill: #faee00;
      }

      .cls-2, .cls-3, .cls-4, .cls-5 {
        stroke-width: 0px;
      }

      .cls-3 {
        fill: #f39800;
      }

      .cls-4 {
        fill: #094;
      }

      .cls-5 {
        fill: #a40b5d;
      }
    </style>
  </defs>
  <path class="cls-1" d="M4.72,11.64c-.86.1-1.76-.03-2.5-.5-.71-.45-1.18-1.04-1.41-1.76-.22-.68-.26-1.41-.18-2.15.18-1.67.81-3.16,1.72-4.52.45-.66,1.03-1.23,1.69-1.62.45-.26,1.03-.45,1.56-.5.75-.07,1.54.25,2,.88.03.07.05.13.05.2l.03.22c-.05.1-.2.17-.26.1-.28-.3-.6-.55-.93-.7-.28-.13-.66-.18-.99-.12-.53.1-1.11.33-1.52.65-.84.65-1.51,1.62-1.92,2.53-.41.89-.79,2.02-.88,3.1-.08.89.03,1.74.51,2.47.43.65,1.09,1.03,1.8,1.16,1.62.3,2.88-.33,4.11-1.52.38-.36.7-.79.96-1.24.2-.13.31.1.26.28-.2.45-.58.98-.96,1.36-.96.94-1.87,1.54-3.15,1.69Z"/>
  <path class="cls-3" d="M13.36,11.69c-.56-.02-1.08-.38-1.44-.81-.23-.28-.38-.55-.5-.83-.12-.26-.2-.53-.3-.84-.46.55-1.01,1.08-1.59,1.47-.1.07-.26.08-.38,0-.1-.07-.12-.23-.03-.33l.99-.91c.33-.3.63-.65.88-.99-.15-1.61-.18-3.28.17-4.8.25-1.04.7-2.02,1.39-2.86.17-.2.53-.22.71-.05.35.5.4,1.14.41,1.71.02.66-.05,1.27-.17,1.89-.31,1.57-1.06,2.98-1.94,4.32.1.58.26,1.19.6,1.69.23.36.56.66.99.81.45.1.75,0,1.11-.22.33-.22.73-.71.93-1.08.03-.1.1-.23.22-.23.1.1.1.18.08.26,0,.07-.03.13-.05.2-.2.45-.51.89-.91,1.19-.35.25-.7.43-1.18.41ZM11.67,3.94c-.25,1.19-.25,2.47-.18,3.71.68-1.06,1.23-2.24,1.51-3.49.2-.93.23-1.9.05-2.91-.03-.15-.2-.18-.26-.1-.58.83-.91,1.79-1.11,2.8Z"/>
  <path class="cls-4" d="M20.13,9.41c-.12-.35-.2-.71-.28-1.08-.45,1.13-1.04,2.29-2.09,3.11-.33.26-.84.36-1.21.13-.41-.25-.6-.65-.66-1.09-.07-.56.03-1.21.17-1.69.33-1.26,1.03-2.42,2.1-3.33.15-.08.3-.17.45-.22.17-.05.33-.05.5.03.4.18.68.53.83.93.17.23.17.58.2.86.07.12.1.22.15.36.07.6.2,1.13.36,1.67.28.88.45,1.56,1.13,2.22.02.22-.25.18-.4.15-.73-.53-.96-1.27-1.24-2.07ZM18.97,5.83c-.17-.05-.3,0-.43.08-.51.35-.98.98-1.27,1.49-.36.66-.61,1.37-.76,2.12-.02.25-.05.51-.03.76.02.25.08.46.22.65.15.15.41.18.61.12,1.18-.91,1.85-2.17,2.29-3.46.03-.18.05-.38.17-.55-.05-.17-.17-.46-.26-.65-.13-.23-.3-.45-.51-.56Z"/>
  <path class="cls-5" d="M22.68,11.63c-.22-.1-.46-.25-.56-.48-.07-.18-.02-.58.02-.75.05-.15.12-.3.25-.4.05-.03.1-.03.13-.03.07.02.1.07.1.1,0,.2-.08.45-.08.66.02.17.05.3.22.35.3.1.61.05.91,0,.81-.13,1.54-.41,2.17-.96.08-.08.1-.2.07-.3-.17-.18-.43-.2-.66-.26-.46-.12-.94-.17-1.42-.25-.36-.05-.73-.13-1.04-.31-.31-.23-.41-.63-.31-1.01.28-.71.73-1.61,1.37-2.17.33-.28.73-.51,1.18-.58.22,0,.4.07.58.18s.35.38.36.63c0,.1-.08.2-.22.25-.08-.08-.13-.17-.2-.23s-.13-.13-.22-.18c-.08-.07-.22-.12-.33-.1-.17,0-.3.07-.43.17-.45.33-.86.84-1.14,1.32-.17.3-.31.6-.4.91-.05.12-.02.25.07.31.12.12.28.17.45.2l1.19.2c.4.07.78.13,1.16.26.22.07.45.25.56.5.05.17.1.41-.02.58-.38.56-1.06.91-1.64,1.13-.65.25-1.39.36-2.1.26Z"/>
  <path class="cls-2" d="M27.65,11.63c-.22-.1-.46-.25-.56-.48-.07-.18-.02-.58.02-.75.05-.15.12-.3.25-.4.05-.03.1-.03.13-.03.07.02.1.07.1.1,0,.2-.08.45-.08.66.02.17.05.3.22.35.3.1.61.05.91,0,.81-.13,1.54-.41,2.17-.96.08-.08.1-.2.07-.3-.17-.18-.43-.2-.66-.26-.46-.12-.94-.17-1.42-.25-.36-.05-.73-.13-1.04-.31-.31-.23-.41-.63-.31-1.01.28-.71.73-1.61,1.37-2.17.33-.28.73-.51,1.18-.58.22,0,.4.07.58.18s.35.38.36.63c0,.1-.08.2-.22.25-.08-.08-.13-.17-.2-.23s-.13-.13-.22-.18c-.08-.07-.22-.12-.33-.1-.17,0-.3.07-.43.17-.45.33-.86.84-1.14,1.32-.17.3-.31.6-.4.91-.05.12-.02.25.07.31.12.12.28.17.45.2l1.19.2c.4.07.78.13,1.16.26.22.07.45.25.56.5.05.17.1.41-.02.58-.38.56-1.06.91-1.64,1.13-.65.25-1.39.36-2.1.26Z"/>
</svg>